#!OML:ASF F:\VICON\USERDATA\INSTALL\rory3\rory3.ASF
:FULLY-SPECIFIED
:DEGREES
73
root -0.4599412462387714 17.782669488551967 39.96273006300327 3.0112112124471553 -0.02214447524927643 -5.08714542749393
lfemur -28.579357813297 3.876014586339958 -15.95119838171356
ltibia 82.4585303660345
lfoot 1.123461989274214 -8.376827557998626
ltoes -14.179276134140817
rfemur -14.458238143667675 2.3495175723870405 34.03883472575818
rtibia 52.575583923967194
rfoot -4.246761811568698 -6.016041832856672
rtoes 12.57476191725529
lowerback 15.073900718992116 1.002817857346245 3.660629319686355
upperback -0.518989011173252 2.0631886907009633 2.6843300795886695
thorax -9.498873409682192 0.9066627328849199 -0.3417321221473303
lowerneck -18.94033462184104 -3.0441850200071046 -2.481418682178367
upperneck 12.941278651746806 -4.161576955301163 3.517602971264109
head 7.343742025104647 -1.7123566139830955 1.0508783784322253
lclavicle -2.9227895378490212e-15 9.176125716244075e-16
lhumerus -48.25491603774205 -14.175975137715925 98.656277522259
lradius 108.14773531038765
lwrist 32.985142410317195
lhand -26.094319198388153 0.15009098219288197
lfingers 7.12502
lthumb 0.4546860206377348 30.12383959323494
rclavicle -2.9227895378490212e-15 9.176125716244075e-16
rhumerus -50.991299138768234 10.088395261957409 -98.53264688247714
rradius 108.96342105794297
rwrist -10.25702980225
rhand -16.33795549812775 40.007326947528405
rfingers 7.12502
rthumb 9.873932098815466 10.253977077876174
74
root -0.4405507949005258 17.6959305610482 39.46246645464137 3.4134795905167263 -0.7210999895199673 -5.3655624959028785
lfemur -31.664802800635037 3.887284011702666 -15.305591744079209
ltibia 76.71707777744211
lfoot -0.36714916053913493 -6.500181646458751
ltoes -13.893238844508005
rfemur -10.873663840328883 2.435890570933392 34.699752136983335
rtibia 52.5376028333385
rfoot -5.736124342316208 -6.006583274643306
rtoes 12.072431608553067
lowerback 15.075450744537953 1.353470348741451 4.295194141950825
upperback -0.5281331695598135 2.6346329477775905 2.6037939328008193
thorax -9.458968514097002 1.1417530046566702 -0.907122075201826
lowerneck -19.146671458203123 -3.0682858204556682 -2.380887143868312
upperneck 12.646169769919368 -4.215619722664285 3.4638454598821222
head 7.298289933796803 -1.7303386544033836 1.0053819318574715
lclavicle -2.5446596328770707e-15 1.1918826299793017e-15
lhumerus -50.49806688435197 -12.790067846093269 98.09200699978872
lradius 106.65314548463815
lwrist 32.83149225220111
lhand -26.279251629953958 0.06347843342432169
lfingers 7.12502
lthumb 0.2760779801186912 30.03505307058238
rclavicle -2.5446596328770707e-15 1.1918826299793017e-15
rhumerus -48.19159535576344 11.780427368437191 -99.24964180193884
rradius 110.68673667869334
rwrist -10.998723596523485
rhand -16.53836432448501 40.098525770243796
rfingers 7.12502
rthumb 9.680522176760443 10.340047413152307
75
root -0.4205297768561369 17.56837832928747 38.53172114853896 3.9202826461055666 -1.4582084326264617 -5.672956342661793
lfemur -34.13993230679206 2.9082637319504983 -14.727544707875431
ltibia 68.00425840351264
lfoot -1.1322879112686373 -4.80042269509509
ltoes -13.416095883958171
rfemur -7.863287787596114 2.4068180883471966 35.123345467153264
rtibia 51.78032547564543
rfoot -7.143853659939056 -6.148510667611181
rtoes 10.912561628335366
lowerback 14.91399590289843 1.6432863417540107 4.783895093305088
upperback -0.590397033017662 3.099884905190045 2.52122889795461
thorax -9.400786863479375 1.3342626949461234 -1.4586371190122835
lowerneck -19.43047155253136 -3.109599748911932 -2.2929936832611735
upperneck 12.307654231121147 -4.29558693142177 3.385259160927477
head 7.243746500167531 -1.759766009268557 0.9528371264380705
lclavicle -2.770968871522903e-15 1.0277331293595018e-15
lhumerus -52.86511451164283 -11.38339644674629 97.3518140375543
lradius 104.69814845332796
lwrist 32.43961487882587
lhand -26.443707745732475 0.08080625350449555
lfingers 7.12502
lthumb 0.11725287187600197 30.049699432748653
rclavicle -2.770968871522903e-15 1.0277331293595018e-15
rhumerus -45.7348790963188 13.061217246796147 -99.79981692503414
rradius 112.16755574321257
rwrist -11.688480390469538
rhand -16.76040869230491 40.26694842504
rfingers 7.12502
rthumb 9.466233146798503 10.502497146789157
76
root -0.38801096465687873 17.433639844786185 38.46026521247387 4.528915623963604 -2.061730619992033 -5.872251244625346
lfemur -35.18555735801632 1.3270097211899887 -13.897423334882156
ltibia 58.67405771947235
lfoot -0.9845629378532044 -3.1490805601483873
ltoes -12.660566589923363
rfemur -4.18279057427856 2.516815497028519 35.56567918433231
rtibia 51.48765171801042
rfoot -7.929390571176436 -6.041515856059795
rtoes 9.281275149695151
lowerback 14.644573013783102 1.9469943499705602 5.265077273356692
upperback -0.6700704430096474 3.5761725376332585 2.4863740343982004
thorax -9.293603669405153 1.532606320743274 -1.8371924169138891
lowerneck -19.661915444684805 -3.146943167014647 -2.2009420980587615
upperneck 12.036451144588499 -4.377374813798395 3.37760344736486
head 7.204937168870573 -1.785644268586934 0.9234494661110317
lclavicle -2.354774132515983e-15 1.3296128651274008e-15
lhumerus -54.83595211142457 -9.630729470351811 96.47303324216928
lradius 102.62300802412767
lwrist 31.941653346463987
lhand -26.452732979087187 0.38104622836774604
lfingers 7.12502
lthumb 0.10854268285896085 30.347006330679143
rclavicle -2.354774132515983e-15 1.3296128651274008e-15
rhumerus -43.19557691629453 14.103728699217246 -100.04655268432462
rradius 113.51614372478413
rwrist -12.141822205865369
rhand -16.90224764562241 40.48546038279372
rfingers 7.12502
rthumb 9.329340195290778 10.714975629757575
77
root -0.34950612670916337 17.27749316194679 38.187998321308044 5.096731446379581 -2.6154008827819237 -6.005480583908453
lfemur -35.547841357600255 -0.6443098301426007 -13.221853464592115
ltibia 49.06294592846563
lfoot -0.8177679092299719 -1.9085337755185376
ltoes -11.959042932124152
rfemur -0.8426016209470433 2.615347356296656 35.75598488864122
rtibia 51.061450444071646
rfoot -8.569586680800857 -5.809852182796439
rtoes 6.412157767605905
lowerback 14.271274616094027 2.1989739686852525 5.565285281186289
upperback -0.770062627290062 3.9528176332319163 2.4263758814843475
thorax -9.174668218926477 1.69200943166704 -2.1362681809261916
lowerneck -19.864140390013333 -3.2218954164384837 -2.123601036813404
upperneck 11.84402198176021 -4.515182890854466 3.388163153344431
head 7.181694346662133 -1.8372180393064554 0.8984626340085566
lclavicle -2.224109857379734e-15 1.424387959109618e-15
lhumerus -56.77433531512355 -7.892289549145916 95.45134793342024
lradius 100.30832443462982
lwrist 31.269033035908627
lhand -26.352223853413694 0.8605039142569997
lfingers 7.12502
lthumb 0.20562664710856038 30.824111719405696
rclavicle -2.224109857379734e-15 1.424387959109618e-15
rhumerus -41.072350544240535 14.668048871271662 -100.16192660542436
rradius 114.49672924057032
rwrist -12.44365564501889
rhand -17.029735713333526 40.631895464764334
rfingers 7.12502
rthumb 9.206299499668072 10.857464693031456
78
root -0.31182328766586154 17.10952753598595 37.58884509872477 5.458147002328921 -3.138398130741385 -6.064970355614487
lfemur -35.757786109564755 -2.4338731159413514 -13.011156039184463
ltibia 40.82700972133408
lfoot -0.8237598143199643 -1.4764485028226417
ltoes -11.457838957653408
rfemur 1.7758022989325895 2.5975628651999383 35.57562752630726
rtibia 50.72750192528413
rfoot -8.985723811784489 -5.370432214315148
rtoes 2.0340000297873213
lowerback 13.858449034159598 2.3699389770079486 5.600561057846534
upperback -0.8972987130347365 4.182791786564359 2.301874663943462
thorax -9.08529408932342 1.7927758060796801 -2.382264141140315
lowerneck -20.03199473020648 -3.3649925285797915 -2.0788718463764337
upperneck 11.739035929582332 -4.752935131289092 3.4149592026432516
head 7.173079147109191 -1.9336587830040473 0.8785775726749203
lclavicle -2.671933155783191e-15 1.0995669895895643e-15
lhumerus -58.99401767814243 -6.350757039872341 94.26097254737529
lradius 97.80712497868689
lwrist 30.444432868896953
lhand -26.167913582798782 1.2851686290438864
lfingers 7.12502
lthumb 0.38364680260949946 31.248178759729072
rclavicle -2.671933155783191e-15 1.0995669895895643e-15
rhumerus -39.69652176921888 14.681968300003216 -100.23557050269892
rradius 115.01587712907046
rwrist -12.625332104900142
rhand -17.17387920906152 40.65743349288865
rfingers 7.12502
rthumb 9.067187282104918 10.881713153131567
